<svg width="56" height="56" viewBox="0 0 56 56" fill="none" xmlns="http://www.w3.org/2000/svg">
<g clip-path="url(#clip0_7364_1339)">
<mask id="mask0_7364_1339" style="mask-type:luminance" maskUnits="userSpaceOnUse" x="0" y="0" width="56" height="56">
<path d="M56 0H0V56H56V0Z" fill="white"/>
</mask>
<g mask="url(#mask0_7364_1339)">
<path d="M11.5008 38.2169C7.2783 39.4836 4.66663 41.2336 4.66663 43.1666C4.66663 47.0325 15.1133 50.1666 28 50.1666C40.8866 50.1666 51.3333 47.0325 51.3333 43.1666C51.3333 41.2336 48.7216 39.4836 44.4991 38.2169" stroke="url(#paint0_linear_7364_1339)" stroke-width="4" stroke-linecap="round" stroke-linejoin="round"/>
<path d="M27.9999 40.8333C27.9999 40.8333 43.1666 30.9213 43.1666 19.4621C43.1666 11.2908 36.3762 4.66666 27.9999 4.66666C19.6236 4.66666 12.8333 11.2908 12.8333 19.4621C12.8333 30.9213 27.9999 40.8333 27.9999 40.8333Z" stroke="url(#paint1_linear_7364_1339)" stroke-width="4" stroke-linejoin="round"/>
<path d="M28 25.6667C31.2216 25.6667 33.8333 23.055 33.8333 19.8333C33.8333 16.6117 31.2216 14 28 14C24.7783 14 22.1666 16.6117 22.1666 19.8333C22.1666 23.055 24.7783 25.6667 28 25.6667Z" stroke="url(#paint2_linear_7364_1339)" stroke-width="4" stroke-linejoin="round"/>
</g>
</g>
<defs>
<linearGradient id="paint0_linear_7364_1339" x1="28" y1="38.2169" x2="28" y2="50.1666" gradientUnits="userSpaceOnUse">
<stop stop-color="#FF87A4"/>
<stop offset="1" stop-color="#B935E8"/>
</linearGradient>
<linearGradient id="paint1_linear_7364_1339" x1="27.9999" y1="4.66666" x2="27.9999" y2="40.8333" gradientUnits="userSpaceOnUse">
<stop stop-color="#FF87A4"/>
<stop offset="1" stop-color="#B935E8"/>
</linearGradient>
<linearGradient id="paint2_linear_7364_1339" x1="28" y1="14" x2="28" y2="25.6667" gradientUnits="userSpaceOnUse">
<stop stop-color="#FF87A4"/>
<stop offset="1" stop-color="#B935E8"/>
</linearGradient>
<clipPath id="clip0_7364_1339">
<rect width="56" height="56" fill="white"/>
</clipPath>
</defs>
</svg>
